<?xml version="1.0" encoding="UTF-8"?>
<svg width="128px" height="88px" viewBox="0 0 128 88" version="1.1" xmlns="http://www.w3.org/2000/svg" xmlns:xlink="http://www.w3.org/1999/xlink">
    <!-- Generator: Sketch 51.2 (57519) - http://www.bohemiancoding.com/sketch -->
    <title>Inspection icon</title>
    <desc>Created with Sketch.</desc>
    <defs>
        <ellipse id="path-1" cx="13.5348601" cy="13.771457" rx="13.5348601" ry="13.771457"></ellipse>
    </defs>
    <g id="Desktop" stroke="none" stroke-width="1" fill="none" fill-rule="evenodd">
        <g id="Garage-Doors-Desktop-Copy" transform="translate(-1294.000000, -919.000000)">
            <g id="Inspection-icon" transform="translate(1294.000000, 919.000000)">
                <path d="M67.1901599,69.6282149 C33.7108947,75.3586349 15.2546009,103.44302 1.49904853,58.6802264 C-6.18859087,33.6634036 21.0339103,12.1649025 52.1676226,4.3987079 C126.598244,-14.1677478 132.813686,41.2862112 124.879992,60.8835002 C116.946299,80.4807892 100.669425,63.8977949 67.1901599,69.6282149 Z" id="Bacground" fill="#F2FBFF" fill-rule="nonzero"></path>
                <g id="25-icon-copy" transform="translate(20.691406, 14.165625)">
                    <g id="Garage">
                        <g>
                            <path d="M7.06857984,27.9878018 L7.06857984,65.5409086 C7.06857984,67.4512201 8.64097653,68.999707 10.5807847,68.999707 L73.7958021,68.999707 C75.7356103,68.999707 77.3072286,67.4512201 77.3072286,65.5409086 L77.3072286,27.9878018 L42.187515,4.8057265 L7.06857984,27.9878018 Z" id="Stroke-6" stroke="#153454" stroke-width="1.8" fill="#FFFFFF" stroke-linecap="round" stroke-linejoin="round"></path>
                            <path d="M40.3395187,19.5493251 C40.3395187,21.0811076 41.5801212,22.3219033 43.1125286,22.3219033 C44.6432094,22.3219033 45.8846752,21.0811076 45.8846752,19.5493251 C45.8846752,18.018406 44.6432094,16.7767468 43.1125286,16.7767468 C41.5801212,16.7767468 40.3395187,18.018406 40.3395187,19.5493251" id="Fill-5" fill="#FFFFFF"></path>
                            <path d="M39.4395187,19.5928104 C39.4395187,18.074885 40.6697872,16.8444249 42.188192,16.8444249 C43.7057335,16.8444249 44.9362897,18.0751728 44.9362897,19.5928104 C44.9362897,21.1108683 43.7058889,22.3411959 42.188192,22.3411959 C40.6696317,22.3411959 39.4395187,21.111156 39.4395187,19.5928104 Z" id="Stroke-7" stroke="#00366E" stroke-width="1.8" fill="#B6DBFF" stroke-linecap="round" stroke-linejoin="round"></path>
                            <path d="M81.3806939,30.6577504 L42.5334064,4.8057265 L3.0323103,30.6499167 C2.18386887,31.2050223 1.05013863,31.0055389 0.442133321,30.1941668 L0.442133321,30.1941668 C-0.120105418,29.4438694 0.032346278,28.3798486 0.782643714,27.8176098 C0.809932163,27.7971611 0.837830539,27.7775392 0.866300867,27.7587709 L42.5334064,0.290812034 L83.4279708,27.7657026 C84.2187708,28.2969992 84.4291398,29.3687703 83.8978432,30.1595703 C83.8899914,30.1712572 83.8819968,30.1828475 83.8738612,30.1943387 L83.8738612,30.1943387 C83.3050051,30.997823 82.2002731,31.2031625 81.3806939,30.6577504 Z" id="Stroke-2" stroke="#153454" stroke-width="1.8" fill="#71B6FF" stroke-linecap="round" stroke-linejoin="round"></path>
                        </g>
                        <g id="Door" transform="translate(16.800000, 33.600000)">
                            <path d="M50.6169156,35.3449219 L50.6169156,2.26238268 C50.6169156,1.44379798 49.9432922,0.779894384 49.111946,0.779894384 L2.213923,0.779894384 C1.38335381,0.779894384 0.710507309,1.44379798 0.710507309,2.26238268 L0.710507309,35.3449219 L50.6169156,35.3449219 Z" id="Stroke-11" stroke="#153454" stroke-width="1.8" fill="#B6DBFF" stroke-linecap="round" stroke-linejoin="round"></path>
                            <g id="Shadow" transform="translate(1.200000, 1.200000)" fill="#71B6FF" fill-rule="nonzero">
                                <path d="M1.0121582,0.396481109 L48.4984379,0.396481109 L48.4984379,2.11173683 L0.412158203,2.11173683 L0.412158203,0.996481109 C0.412158203,0.665110259 0.680787353,0.396481109 1.0121582,0.396481109 Z" id="Rectangle-9"></path>
                                <rect id="Rectangle-9-Copy-2" x="0.423925781" y="9.09805569" width="48.0402181" height="1.70480111"></rect>
                                <rect id="Rectangle-9-Copy-3" x="0.461735026" y="17.7905804" width="48.0220052" height="1.70480111"></rect>
                                <rect id="Rectangle-9-Copy-4" x="0.40378262" y="26.4204389" width="48.0969579" height="1.70480111"></rect>
                            </g>
                            <g id="Lines" transform="translate(0.000000, 8.400000)">
                                <path d="M2.5588928,2.4 L50.6169156,2.4" id="Fill-21" fill="#FFFFFF"></path>
                                <path d="M1.14344532,1.02026367 L51.1015742,1.02026367" id="Path-2-Copy" stroke="#153454" stroke-width="1.8" fill-rule="nonzero"></path>
                                <path d="M1.15238087,9.67558594 L51.1105098,9.67558594" id="Path-2-Copy-2" stroke="#153454" stroke-width="1.8" fill-rule="nonzero"></path>
                                <path d="M1.12021941,18.3309082 L51.0783483,18.3309082" id="Path-2-Copy-3" stroke="#153454" stroke-width="1.8" fill-rule="nonzero"></path>
                            </g>
                        </g>
                    </g>
                </g>
                <polygon id="Path-3" fill="#E7F1F7" fill-rule="nonzero" points="97.1681352 46.814945 62.763413 23.9149888 28.6783936 46.9388646 28.6783936 42.7297931 62.9934937 20.1248047 97.3085937 42.7297931"></polygon>
                <g id="Icon" transform="translate(69.990234, 47.772656)">
                    <path d="M22.3376802,24.9646615 L25.9655637,21.2078782 L40.2261145,34.9791321 C41.0714208,35.7954348 41.0949327,37.142435 40.27863,37.9877412 L39.6068402,38.6833999 C38.7905375,39.5287061 37.4435373,39.5522181 36.5982311,38.7359154 L22.3376802,24.9646615 Z" id="Rectangle-3" stroke="#153454" stroke-width="1.8" fill="#12FFCD" stroke-linecap="round" stroke-linejoin="round"></path>
                    <g id="Combined-Shape" transform="translate(0.593670, 0.615843)">
                        <mask id="mask-2" fill="white">
                            <use xlink:href="#path-1"></use>
                        </mask>
                        <use id="Mask" stroke="#153454" stroke-width="1.8" fill="#FFFFFF" stroke-linecap="round" stroke-linejoin="round" xlink:href="#path-1"></use>
                        <path d="M1.03963686,15.5942647 C0.942472994,14.9519303 0.892067079,14.2939056 0.892067079,13.623902 C0.892067079,6.52836318 6.54531589,0.776292424 13.5189517,0.776292424 C20.4925875,0.776292424 26.1458363,6.52836318 26.1458363,13.623902 C26.1458363,14.2939056 26.0954304,14.9519303 25.9982666,15.5942647 C25.0664358,9.43408516 19.8340948,4.7170177 13.5189517,4.7170177 C7.20380859,4.7170177 1.97146762,9.43408516 1.03963686,15.5942647 Z" fill="#E7F1F7" mask="url(#mask-2)"></path>
                    </g>
                </g>
            </g>
        </g>
    </g>
</svg>