<?xml version="1.0" encoding="UTF-8"?>
<svg width="31px" height="37px" viewBox="0 0 31 37" version="1.1" xmlns="http://www.w3.org/2000/svg" xmlns:xlink="http://www.w3.org/1999/xlink">
    <!-- Generator: Sketch 52.3 (67297) - http://www.bohemiancoding.com/sketch -->
    <title>dishwaher_icon_hover</title>
    <desc>Created with Sketch.</desc>
    <g id="CP-&amp;-Funnel" stroke="none" stroke-width="1" fill="none" fill-rule="evenodd">
        <g id="dishwaher_icon_hover" fill="#0060C4" fill-rule="nonzero">
            <path d="M25.3943498,21.4387788 L25.3943498,20.6662855 C24.2953728,19.9889831 23.0378028,19.62505 21.7268075,19.62505 C17.7570531,19.62505 14.5262617,22.9671275 14.5262617,27.104925 C14.5262617,28.3381693 14.813424,29.5257184 15.3529455,30.5885875 L16.0452032,30.5885875 C15.4440901,29.5508466 15.1154025,28.3538548 15.1154025,27.1050562 C15.1154025,23.351528 18.0686325,20.2966187 21.7268921,20.2966187 C23.060485,20.2966187 24.3282614,20.705956 25.3943498,21.4387788 Z M25.3943498,23.8630901 C24.485215,22.7497153 23.1574462,22.0966187 21.7268921,22.0966187 C19.0766345,22.0966187 16.9154025,24.3322617 16.9154025,27.1050562 C16.9154025,28.4256047 17.4077717,29.6616461 18.2704484,30.5885875 L25.3893081,30.5885875 C25.3851839,30.5885875 25.3943498,30.5791056 25.3943498,30.5523375 L25.3943498,23.8630901 Z M25.3943498,18.6277136 L25.3943498,13.3734625 C25.3943498,13.3466944 25.3851839,13.3372125 25.3893081,13.3372125 L5.61076437,13.3372125 C5.6153135,13.3372125 5.60614562,13.3466996 5.60614562,13.3734625 L5.60614562,30.5523375 C5.60614562,30.5791004 5.6153135,30.5885875 5.61076437,30.5885875 L8.30614812,30.5885875 L8.30614812,25.0769375 C8.30614812,23.196937 9.57627085,21.6123649 11.2925319,21.195087 L11.2925319,18.3091375 L10.5438335,18.3091375 C10.0467773,18.3091375 9.64383354,17.9061938 9.64383354,17.4091375 C9.64383354,16.9120812 10.0467773,16.5091375 10.5438335,16.5091375 L13.8413148,16.5091375 C14.3383711,16.5091375 14.7413148,16.9120812 14.7413148,17.4091375 C14.7413148,17.9061938 14.3383711,18.3091375 13.8413148,18.3091375 L13.0925319,18.3091375 L13.0925319,21.195572 C13.5488471,21.3067282 13.9786316,21.5012968 14.3631811,21.7674433 C15.990932,19.3841083 18.6799772,17.82505 21.7268075,17.82505 C23.0105123,17.82505 24.2549593,18.1031292 25.3943498,18.6277136 Z M13.3820321,30.5885875 C12.9520434,29.4944115 12.7262617,28.3160914 12.7262617,27.104925 C12.7262617,25.7736022 12.9984087,24.5070337 13.4887216,23.3616003 C13.1287536,23.0612811 12.6812054,22.8913168 12.207348,22.8878055 C12.2024188,22.8878851 12.19748,22.887925 12.1925319,22.887925 C12.18755,22.887925 12.1825776,22.8878845 12.1776149,22.8878039 C11.0393506,22.8961225 10.1061481,23.8667046 10.1061481,25.0769375 L10.1061481,30.5885875 L13.3820321,30.5885875 Z M28.7833079,30.2583014 L28.7833079,9.2793125 L2.21744125,9.2793125 L2.21744125,30.2715695 C2.22716359,30.3245685 2.23224333,30.379191 2.23224333,30.435 L2.23224333,34.007625 C2.23224333,34.5790806 2.6681321,35.03 3.19053917,35.03 L27.8072496,35.03 C28.329803,35.03 28.7659683,34.5789363 28.7659683,34.007625 L28.7659683,30.435 C28.7659683,30.3745218 28.7719336,30.3154368 28.7833079,30.2583014 Z M30.5659683,30.7313549 L30.5659683,34.007625 C30.5659683,35.5597719 29.3376951,36.83 27.8072496,36.83 L3.19053917,36.83 C1.66010873,36.83 0.432243333,35.5597944 0.432243333,34.007625 L0.432243333,30.6822117 C0.42252099,30.6292128 0.41744125,30.5745902 0.41744125,30.5187812 L0.41744125,2.91471875 C0.41744125,1.42718063 1.59466776,0.20915625 3.06281833,0.20915625 L27.9379308,0.20915625 C29.4057696,0.20915625 30.5833079,1.42729934 30.5833079,2.91471875 L30.5833079,30.5546562 C30.5833079,30.6151345 30.5773426,30.6742195 30.5659683,30.7313549 Z M28.7833079,7.4793125 L28.7833079,2.91471875 C28.7833079,2.40801316 28.3977462,2.00915625 27.9379308,2.00915625 L3.06281833,2.00915625 C2.60276102,2.00915625 2.21744125,2.40782963 2.21744125,2.91471875 L2.21744125,7.4793125 L28.7833079,7.4793125 Z M25.3893081,32.3885875 L5.61076437,32.3885875 C4.60715531,32.3885875 3.80614562,31.5596892 3.80614562,30.5523375 L3.80614562,13.3734625 C3.80614562,12.3661108 4.60715531,11.5372125 5.61076437,11.5372125 L25.3893081,11.5372125 C26.3932073,11.5372125 27.1943498,12.3659806 27.1943498,13.3734625 L27.1943498,30.5523375 C27.1943498,31.5598194 26.3932073,32.3885875 25.3893081,32.3885875 Z M11.7469046,5.587325 C11.3492596,5.587325 11.0269046,5.26497002 11.0269046,4.867325 C11.0269046,4.46967998 11.3492596,4.147325 11.7469046,4.147325 L19.2536754,4.147325 C19.6513204,4.147325 19.9736754,4.46967998 19.9736754,4.867325 C19.9736754,5.26497002 19.6513204,5.587325 19.2536754,5.587325 L11.7469046,5.587325 Z" id="Combined-Shape"></path>
        </g>
    </g>
</svg>