<?xml version="1.0" encoding="UTF-8"?>
<svg width="30px" height="37px" viewBox="0 0 30 37" version="1.1" xmlns="http://www.w3.org/2000/svg" xmlns:xlink="http://www.w3.org/1999/xlink">
    <!-- Generator: Sketch 52.3 (67297) - http://www.bohemiancoding.com/sketch -->
    <title>dryer_icon_hover</title>
    <desc>Created with Sketch.</desc>
    <g id="CP-&amp;-Funnel" stroke="none" stroke-width="1" fill="none" fill-rule="evenodd">
        <g id="dryer_icon_hover" fill="#0060C4" fill-rule="nonzero">
            <path d="M23.0080069,24.2824125 L22.9206569,24.2824125 C22.1777279,24.2824125 21.5881052,23.6721436 21.5881052,22.9344125 L21.5881052,21.1341 C21.5881052,20.3967858 22.1777329,19.7861 22.9206569,19.7861 L23.0080069,19.7861 L23.0080069,15.7765188 C23.0080069,15.4368691 22.7538164,15.1737063 22.4565931,15.1737063 L7.8360069,15.1737063 C7.53854904,15.1737063 7.2845931,15.4366792 7.2845931,15.7765188 L7.2845931,27.2753313 C7.2845931,27.6155796 7.53852574,27.8785813 7.8360069,27.8785813 L22.4565931,27.8785813 C22.7538398,27.8785813 23.0080069,27.6153896 23.0080069,27.2753313 L23.0080069,24.2824125 Z M22.4565931,29.6785813 L7.8360069,29.6785813 C6.53000529,29.6785813 5.4845931,28.5958329 5.4845931,27.2753313 L5.4845931,15.7765188 C5.4845931,14.4563481 6.53011264,13.3737063 7.8360069,13.3737063 L22.4565931,13.3737063 C23.7621688,13.3737063 24.8080069,14.4564602 24.8080069,15.7765188 L24.8080069,27.2753313 C24.8080069,28.5957207 23.7622762,29.6785813 22.4565931,29.6785813 Z M3.70746121,9.02420625 C3.21040493,9.02420625 2.80746121,8.62126252 2.80746121,8.12420625 C2.80746121,7.62714998 3.21040493,7.22420625 3.70746121,7.22420625 L26.5849698,7.22420625 C27.0820261,7.22420625 27.4849698,7.62714998 27.4849698,8.12420625 C27.4849698,8.62126252 27.0820261,9.02420625 26.5849698,9.02420625 L3.70746121,9.02420625 Z M8.47609052,4.61869375 C8.47609052,4.17550625 8.82246983,3.81719375 9.24995259,3.81719375 C9.67743534,3.81719375 10.0238147,4.17550625 10.0238147,4.61869375 C10.0238147,5.06144375 9.67743534,5.42019375 9.24995259,5.42019375 C8.82246983,5.42019375 8.47609052,5.06144375 8.47609052,4.61869375 Z M4.22145431,4.61869375 C4.22145431,3.87625625 4.80269569,3.27469375 5.51910948,3.27469375 C6.2363681,3.27469375 6.81718707,3.87625625 6.81718707,4.61869375 C6.81718707,5.36069375 6.2363681,5.96269375 5.51910948,5.96269375 C4.80269569,5.96269375 4.22145431,5.36069375 4.22145431,4.61869375 Z M26.8404034,34.9179125 C27.4867984,34.9179125 28.0237483,34.3617858 28.0237483,33.6601625 L28.0237483,3.3265375 C28.0237483,2.6253111 27.4867623,2.069225 26.8404034,2.069225 L3.45261897,2.069225 C2.80626007,2.069225 2.26927414,2.6253111 2.26927414,3.3265375 L2.26927414,33.6601625 C2.26927414,34.3617858 2.80622402,34.9179125 3.45261897,34.9179125 L26.8404034,34.9179125 Z M26.8404034,36.7179125 L3.45261897,36.7179125 C1.79770357,36.7179125 0.469274138,35.3420392 0.469274138,33.6601625 L0.469274138,3.3265375 C0.469274138,1.6450036 1.79779817,0.269225 3.45261897,0.269225 L26.8404034,0.269225 C28.4952242,0.269225 29.8237483,1.6450036 29.8237483,3.3265375 L29.8237483,33.6601625 C29.8237483,35.3420392 28.4953188,36.7179125 26.8404034,36.7179125 Z M22.4450612,5.51869375 C21.9480049,5.51869375 21.5450612,5.11575002 21.5450612,4.61869375 C21.5450612,4.12163748 21.9480049,3.71869375 22.4450612,3.71869375 L26.5851388,3.71869375 C27.0821951,3.71869375 27.4851388,4.12163748 27.4851388,4.61869375 C27.4851388,5.11575002 27.0821951,5.51869375 26.5851388,5.51869375 L22.4450612,5.51869375 Z" id="Combined-Shape"></path>
        </g>
    </g>
</svg>