<svg xmlns="http://www.w3.org/2000/svg" width="154" height="34" viewBox="0 0 154 34">
  <g fill="none">
    <g transform="translate(39 11)">
      <rect width="115" height="23" fill="#4080FF" rx="3"/>
      <path fill="#FFF" d="M7,13.1353383 L7,11.4030075 L10.3126338,7 L12.3754461,7 L12.3754461,11.7157895 L13.6738044,11.7157895 L13.6738044,13.1353383 L12.3754461,13.1353383 L12.3754461,14.8075188 L10.7251963,14.8075188 L10.7251963,13.1353383 L7,13.1353383 Z M10.7251963,11.7157895 L10.7251963,8.73233083 L8.48037116,11.7157895 L10.7251963,11.7157895 Z M14.6324054,13.7969925 C14.6324054,13.1954887 15.1299072,12.7022556 15.7366167,12.7022556 C16.3554604,12.7022556 16.8529622,13.1954887 16.8529622,13.7969925 C16.8529622,14.3984962 16.3554604,14.8917293 15.7366167,14.8917293 C15.1299072,14.8917293 14.6324054,14.3984962 14.6324054,13.7969925 Z M17.9814418,12.6180451 L19.5467523,12.2691729 C19.5831549,12.9909774 20.1413276,13.5804511 20.9785867,13.5804511 C21.7309065,13.5804511 22.337616,13.087218 22.337616,12.3052632 C22.337616,11.4150376 21.6702355,10.993985 20.9421842,10.993985 C20.4082798,10.993985 19.9835832,11.2345865 19.7287652,11.5233083 C19.5710207,11.4631579 18.3697359,11.0541353 18.1998572,11.006015 L19.1341899,7 L23.5753034,7 L23.5753034,8.43157895 L20.2748037,8.43157895 L19.8865096,10.1518797 C20.226267,9.83909774 20.7844397,9.67067669 21.3062099,9.67067669 C22.8836545,9.67067669 24,10.6090226 24,12.281203 C24,13.7368421 22.8715203,15 20.9785867,15 C19.267666,15 18.0785153,13.8451128 17.9814418,12.6180451 Z"/>
      <g fill="#FFF" transform="translate(29 4)">
        <polygon points="73.527 10.037 69.528 12.816 70.938 8.16 67.056 5.221 71.927 5.122 73.527 .527 75.126 5.122 79.997 5.221 76.115 8.16 77.526 12.816" opacity=".359"/>
        <polygon points="9.756 5.142 9.756 11.823 7.185 10.037 3.186 12.816 4.597 8.16 .715 5.221 5.585 5.122 7.185 .527 8.785 5.122" transform="translate(66.341)"/>
        <polygon points="56.875 9.868 52.876 12.646 54.286 7.99 50.404 5.051 55.275 4.952 56.875 .358 58.474 4.952 63.345 5.051 59.463 7.99 60.874 12.646"/>
        <polygon points="40.223 9.868 36.224 12.646 37.634 7.99 33.752 5.051 38.623 4.952 40.223 .358 41.822 4.952 46.693 5.051 42.811 7.99 44.222 12.646"/>
        <polygon points="23.571 9.868 19.572 12.646 20.982 7.99 17.1 5.051 21.971 4.952 23.571 .358 25.17 4.952 30.041 5.051 26.159 7.99 27.57 12.646"/>
        <polygon points="6.919 9.868 2.92 12.646 4.331 7.99 .448 5.051 5.319 4.952 6.919 .358 8.518 4.952 13.389 5.051 9.507 7.99 10.918 12.646"/>
      </g>
    </g>
    <path fill="#FFF" d="M1.82134667,34 C0.815149951,34 32.1844659,34 31.1787814,34 L22.7695224,34 L22.7695224,21.2205813 L27.0589833,21.2205813 L27.7012692,16.2402151 L22.7695224,16.2402151 L22.7695224,13.060566 C22.7695224,11.618635 23.1699267,10.6360067 25.2376366,10.6360067 L27.8749015,10.6348542 L27.8749015,6.18037475 C27.4187966,6.11968074 25.8532887,5.98407956 24.031942,5.98407956 C20.2295735,5.98407956 17.6263692,8.3050493 17.6263692,12.5673311 L17.6263692,16.2402151 L13.3258962,16.2402151 L13.3258962,21.2205813 L17.6263692,21.2205813 L17.6263692,34 L1.82134667,34 Z"/>
    <path fill="#3B579D" d="M17.6263692,34 L1.82134667,34 C0.815149951,34 0,33.1843442 0,32.1785394 L0,2.82133254 C0,1.81527167 0.815277999,1 1.82134667,1 L31.1787814,1 C32.184594,1 33,1.81527167 33,2.82133254 L33,32.1785394 C33,33.1844722 32.1844659,34 31.1787814,34 L22.7695224,34 L22.7695224,21.2205813 L27.0589833,21.2205813 L27.7012692,16.2402151 L22.7695224,16.2402151 L22.7695224,13.060566 C22.7695224,11.618635 23.1699267,10.6360067 25.2376366,10.6360067 L27.8749015,10.6348542 L27.8749015,6.18037475 C27.4187966,6.11968074 25.8532887,5.98407956 24.031942,5.98407956 C20.2295735,5.98407956 17.6263692,8.3050493 17.6263692,12.5673311 L17.6263692,16.2402151 L13.3258962,16.2402151 L13.3258962,21.2205813 L17.6263692,21.2205813 L17.6263692,34 Z"/>
    <path fill="#4080FF" d="M42.1855241,7.79270583 L40.8840241,7.79270583 L40.8840241,3.66970583 L39.4020241,3.66970583 L39.4020241,2.78620583 C40.3045241,2.77670583 40.9315241,2.27320583 41.0550241,1.62720583 L42.1855241,1.62720583 L42.1855241,7.79270583 Z M44.5700241,4.71470583 C44.5700241,5.36070583 44.6650241,5.91170583 44.9025241,6.28220583 C45.0925241,6.58620583 45.3870241,6.78570583 45.8335241,6.78570583 C46.2895241,6.78570583 46.5650241,6.58620583 46.7550241,6.28220583 C47.0020241,5.91170583 47.0970241,5.36070583 47.0970241,4.71470583 C47.0970241,4.06870583 47.0020241,3.51770583 46.7550241,3.14720583 C46.5650241,2.84320583 46.2895241,2.64370583 45.8335241,2.64370583 C45.3870241,2.64370583 45.0925241,2.84320583 44.9025241,3.14720583 C44.6650241,3.51770583 44.5700241,4.06870583 44.5700241,4.71470583 Z M43.2590241,4.71470583 C43.2590241,3.92620583 43.3825241,3.15670583 43.8005241,2.52020583 C44.2090241,1.91220583 44.8740241,1.48470583 45.8335241,1.48470583 C46.7930241,1.48470583 47.4580241,1.91220583 47.8570241,2.52020583 C48.2750241,3.15670583 48.4080241,3.92620583 48.4080241,4.71470583 C48.4080241,5.50320583 48.2750241,6.27270583 47.8570241,6.90920583 C47.4580241,7.51720583 46.7930241,7.94470583 45.8335241,7.94470583 C44.8740241,7.94470583 44.2090241,7.51720583 43.8005241,6.90920583 C43.3825241,6.27270583 43.2590241,5.50320583 43.2590241,4.71470583 Z M50.4980241,4.71470583 C50.4980241,5.36070583 50.5930241,5.91170583 50.8305241,6.28220583 C51.0205241,6.58620583 51.3150241,6.78570583 51.7615241,6.78570583 C52.2175241,6.78570583 52.4930241,6.58620583 52.6830241,6.28220583 C52.9300241,5.91170583 53.0250241,5.36070583 53.0250241,4.71470583 C53.0250241,4.06870583 52.9300241,3.51770583 52.6830241,3.14720583 C52.4930241,2.84320583 52.2175241,2.64370583 51.7615241,2.64370583 C51.3150241,2.64370583 51.0205241,2.84320583 50.8305241,3.14720583 C50.5930241,3.51770583 50.4980241,4.06870583 50.4980241,4.71470583 Z M49.1870241,4.71470583 C49.1870241,3.92620583 49.3105241,3.15670583 49.7285241,2.52020583 C50.1370241,1.91220583 50.8020241,1.48470583 51.7615241,1.48470583 C52.7210241,1.48470583 53.3860241,1.91220583 53.7850241,2.52020583 C54.2030241,3.15670583 54.3360241,3.92620583 54.3360241,4.71470583 C54.3360241,5.50320583 54.2030241,6.27270583 53.7850241,6.90920583 C53.3860241,7.51720583 52.7210241,7.94470583 51.7615241,7.94470583 C50.8020241,7.94470583 50.1370241,7.51720583 49.7285241,6.90920583 C49.3105241,6.27270583 49.1870241,5.50320583 49.1870241,4.71470583 Z M56.4260241,4.71470583 C56.4260241,5.36070583 56.5210241,5.91170583 56.7585241,6.28220583 C56.9485241,6.58620583 57.2430241,6.78570583 57.6895241,6.78570583 C58.1455241,6.78570583 58.4210241,6.58620583 58.6110241,6.28220583 C58.8580241,5.91170583 58.9530241,5.36070583 58.9530241,4.71470583 C58.9530241,4.06870583 58.8580241,3.51770583 58.6110241,3.14720583 C58.4210241,2.84320583 58.1455241,2.64370583 57.6895241,2.64370583 C57.2430241,2.64370583 56.9485241,2.84320583 56.7585241,3.14720583 C56.5210241,3.51770583 56.4260241,4.06870583 56.4260241,4.71470583 Z M55.1150241,4.71470583 C55.1150241,3.92620583 55.2385241,3.15670583 55.6565241,2.52020583 C56.0650241,1.91220583 56.7300241,1.48470583 57.6895241,1.48470583 C58.6490241,1.48470583 59.3140241,1.91220583 59.7130241,2.52020583 C60.1310241,3.15670583 60.2640241,3.92620583 60.2640241,4.71470583 C60.2640241,5.50320583 60.1310241,6.27270583 59.7130241,6.90920583 C59.3140241,7.51720583 58.6490241,7.94470583 57.6895241,7.94470583 C56.7300241,7.94470583 56.0650241,7.51720583 55.6565241,6.90920583 C55.2385241,6.27270583 55.1150241,5.50320583 55.1150241,4.71470583 Z M60.9290241,6.49120583 L62.0120241,6.25370583 C62.0405241,6.62420583 62.3160241,6.96620583 62.8670241,6.96620583 C63.2850241,6.96620583 63.4845241,6.74770583 63.4845241,6.50070583 C63.4845241,6.29170583 63.3420241,6.12070583 62.9810241,6.04470583 L62.3635241,5.90220583 C61.4610241,5.70270583 61.0525241,5.16120583 61.0525241,4.50570583 C61.0525241,3.66970583 61.7935241,2.97620583 62.8005241,2.97620583 C64.1305241,2.97620583 64.5770241,3.82170583 64.6340241,4.32520583 L63.5795241,4.56270583 C63.5415241,4.28720583 63.3420241,3.93570583 62.8100241,3.93570583 C62.4775241,3.93570583 62.2115241,4.13520583 62.2115241,4.40120583 C62.2115241,4.62920583 62.3825241,4.77170583 62.6390241,4.81920583 L63.3040241,4.96170583 C64.2255241,5.15170583 64.6910241,5.71220583 64.6910241,6.39620583 C64.6910241,7.15620583 64.1020241,7.93520583 62.8765241,7.93520583 C61.4705241,7.93520583 60.9860241,7.02320583 60.9290241,6.49120583 Z M70.1535241,6.78570583 C70.7710241,6.78570583 71.3410241,6.33920583 71.3410241,5.45570583 C71.3410241,4.57220583 70.7710241,4.12570583 70.1535241,4.12570583 C69.5360241,4.12570583 68.9660241,4.57220583 68.9660241,5.45570583 C68.9660241,6.32970583 69.5360241,6.78570583 70.1535241,6.78570583 Z M70.1535241,2.97620583 C71.5500241,2.97620583 72.6045241,4.01170583 72.6045241,5.45570583 C72.6045241,6.89020583 71.5500241,7.93520583 70.1535241,7.93520583 C68.7570241,7.93520583 67.7025241,6.89020583 67.7025241,5.45570583 C67.7025241,4.01170583 68.7570241,2.97620583 70.1535241,2.97620583 Z M75.7680241,1.95970583 C75.4830241,1.95970583 75.1125241,2.08320583 75.1125241,2.60570583 L75.1125241,3.11870583 L76.1670241,3.11870583 L76.1670241,4.20170583 L75.1125241,4.20170583 L75.1125241,7.79270583 L73.8395241,7.79270583 L73.8395241,4.20170583 L73.0605241,4.20170583 L73.0605241,3.11870583 L73.8395241,3.11870583 L73.8395241,2.58670583 C73.8395241,1.53220583 74.5045241,0.848205829 75.5400241,0.848205829 C75.8060241,0.848205829 76.0625241,0.895705829 76.1670241,0.943205829 L76.1670241,2.00720583 C76.1005241,1.98820583 75.9770241,1.95970583 75.7680241,1.95970583 Z M78.9315241,6.06370583 L80.1570241,5.78820583 C80.1855241,6.35820583 80.6225241,6.82370583 81.2780241,6.82370583 C81.8670241,6.82370583 82.3420241,6.43420583 82.3420241,5.81670583 C82.3420241,5.11370583 81.8195241,4.78120583 81.2495241,4.78120583 C80.8315241,4.78120583 80.4990241,4.97120583 80.2995241,5.19920583 C80.1760241,5.15170583 79.2355241,4.82870583 79.1025241,4.79070583 L79.8340241,1.62720583 L83.3110241,1.62720583 L83.3110241,2.75770583 L80.7270241,2.75770583 L80.4230241,4.11620583 C80.6890241,3.86920583 81.1260241,3.73620583 81.5345241,3.73620583 C82.7695241,3.73620583 83.6435241,4.47720583 83.6435241,5.79770583 C83.6435241,6.94720583 82.7600241,7.94470583 81.2780241,7.94470583 C79.9385241,7.94470583 79.0075241,7.03270583 78.9315241,6.06370583 Z M87.1015241,5.53170583 L84.3465241,5.53170583 L84.3465241,4.41070583 L87.1015241,4.41070583 L87.1015241,5.53170583 Z M87.8045241,6.49120583 L88.8875241,6.25370583 C88.9160241,6.62420583 89.1915241,6.96620583 89.7425241,6.96620583 C90.1605241,6.96620583 90.3600241,6.74770583 90.3600241,6.50070583 C90.3600241,6.29170583 90.2175241,6.12070583 89.8565241,6.04470583 L89.2390241,5.90220583 C88.3365241,5.70270583 87.9280241,5.16120583 87.9280241,4.50570583 C87.9280241,3.66970583 88.6690241,2.97620583 89.6760241,2.97620583 C91.0060241,2.97620583 91.4525241,3.82170583 91.5095241,4.32520583 L90.4550241,4.56270583 C90.4170241,4.28720583 90.2175241,3.93570583 89.6855241,3.93570583 C89.3530241,3.93570583 89.0870241,4.13520583 89.0870241,4.40120583 C89.0870241,4.62920583 89.2580241,4.77170583 89.5145241,4.81920583 L90.1795241,4.96170583 C91.1010241,5.15170583 91.5665241,5.71220583 91.5665241,6.39620583 C91.5665241,7.15620583 90.9775241,7.93520583 89.7520241,7.93520583 C88.3460241,7.93520583 87.8615241,7.02320583 87.8045241,6.49120583 Z M94.1410241,1.72220583 L94.1410241,3.11870583 L95.0815241,3.11870583 L95.0815241,4.23970583 L94.1410241,4.23970583 L94.1410241,6.19670583 C94.1410241,6.60520583 94.3310241,6.73820583 94.6920241,6.73820583 C94.8440241,6.73820583 95.0150241,6.71920583 95.0815241,6.70020583 L95.0815241,7.74520583 C94.9675241,7.79270583 94.7395241,7.85920583 94.3690241,7.85920583 C93.4570241,7.85920583 92.8870241,7.31770583 92.8870241,6.41520583 L92.8870241,4.23970583 L92.0415241,4.23970583 L92.0415241,3.11870583 L92.2790241,3.11870583 C92.7730241,3.11870583 93.0010241,2.79570583 93.0010241,2.37770583 L93.0010241,1.72220583 L94.1410241,1.72220583 Z M95.8415241,6.51970583 C95.8415241,5.68370583 96.4590241,5.21820583 97.2380241,5.10420583 L98.3875241,4.93320583 C98.6535241,4.89520583 98.7390241,4.76220583 98.7390241,4.60070583 C98.7390241,4.26820583 98.4825241,3.99270583 97.9505241,3.99270583 C97.3995241,3.99270583 97.0955241,4.34420583 97.0575241,4.75270583 L95.9365241,4.51520583 C96.0125241,3.78370583 96.6870241,2.97620583 97.9410241,2.97620583 C99.4230241,2.97620583 99.9740241,3.81220583 99.9740241,4.75270583 L99.9740241,7.05170583 C99.9740241,7.29870583 100.002524,7.63120583 100.031024,7.79270583 L98.8720241,7.79270583 C98.8435241,7.66920583 98.8245241,7.41270583 98.8245241,7.23220583 C98.5870241,7.60270583 98.1405241,7.92570583 97.4470241,7.92570583 C96.4495241,7.92570583 95.8415241,7.25120583 95.8415241,6.51970583 Z M97.7130241,6.98520583 C98.2450241,6.98520583 98.7390241,6.72870583 98.7390241,5.90220583 L98.7390241,5.69320583 L97.6845241,5.85470583 C97.3615241,5.90220583 97.1050241,6.08270583 97.1050241,6.44370583 C97.1050241,6.71920583 97.3045241,6.98520583 97.7130241,6.98520583 Z M104.097024,3.09970583 L104.097024,4.37270583 C103.954524,4.34420583 103.831024,4.33470583 103.717024,4.33470583 C103.071024,4.33470583 102.510524,4.64820583 102.510524,5.65520583 L102.510524,7.79270583 L101.247024,7.79270583 L101.247024,3.11870583 L102.472524,3.11870583 L102.472524,3.81220583 C102.757524,3.19470583 103.403524,3.08070583 103.802524,3.08070583 C103.907024,3.08070583 104.002024,3.09020583 104.097024,3.09970583 Z M110.158024,3.09970583 L110.158024,4.37270583 C110.015524,4.34420583 109.892024,4.33470583 109.778024,4.33470583 C109.132024,4.33470583 108.571524,4.64820583 108.571524,5.65520583 L108.571524,7.79270583 L107.308024,7.79270583 L107.308024,3.11870583 L108.533524,3.11870583 L108.533524,3.81220583 C108.818524,3.19470583 109.464524,3.08070583 109.863524,3.08070583 C109.968024,3.08070583 110.063024,3.09020583 110.158024,3.09970583 Z M111.944024,4.92370583 L114.034024,4.92370583 C114.015024,4.45820583 113.711024,4.00220583 112.989024,4.00220583 C112.333524,4.00220583 111.972524,4.49620583 111.944024,4.92370583 Z M114.157524,6.13970583 L115.212024,6.45320583 C114.974524,7.26070583 114.233524,7.93520583 113.084024,7.93520583 C111.801524,7.93520583 110.671024,7.01370583 110.671024,5.43670583 C110.671024,3.94520583 111.773024,2.97620583 112.970024,2.97620583 C114.414024,2.97620583 115.278524,3.89770583 115.278524,5.39870583 C115.278524,5.57920583 115.259524,5.76920583 115.259524,5.78820583 L111.915524,5.78820583 C111.944024,6.40570583 112.466524,6.85220583 113.093524,6.85220583 C113.682524,6.85220583 114.005524,6.55770583 114.157524,6.13970583 Z M120.684024,3.11870583 L118.869524,7.79270583 L117.606024,7.79270583 L115.696524,3.11870583 L117.083524,3.11870583 L118.242524,6.25370583 L119.354024,3.11870583 L120.684024,3.11870583 Z M122.717024,7.79270583 L121.453524,7.79270583 L121.453524,3.11870583 L122.717024,3.11870583 L122.717024,7.79270583 Z M121.301524,1.58920583 C121.301524,1.15220583 121.653024,0.800705829 122.080524,0.800705829 C122.517524,0.800705829 122.859524,1.15220583 122.859524,1.58920583 C122.859524,2.00720583 122.517524,2.35870583 122.080524,2.35870583 C121.653024,2.35870583 121.301524,2.00720583 121.301524,1.58920583 Z M124.987524,4.92370583 L127.077524,4.92370583 C127.058524,4.45820583 126.754524,4.00220583 126.032524,4.00220583 C125.377024,4.00220583 125.016024,4.49620583 124.987524,4.92370583 Z M127.201024,6.13970583 L128.255524,6.45320583 C128.018024,7.26070583 127.277024,7.93520583 126.127524,7.93520583 C124.845024,7.93520583 123.714524,7.01370583 123.714524,5.43670583 C123.714524,3.94520583 124.816524,2.97620583 126.013524,2.97620583 C127.457524,2.97620583 128.322024,3.89770583 128.322024,5.39870583 C128.322024,5.57920583 128.303024,5.76920583 128.303024,5.78820583 L124.959024,5.78820583 C124.987524,6.40570583 125.510024,6.85220583 126.137024,6.85220583 C126.726024,6.85220583 127.049024,6.55770583 127.201024,6.13970583 Z M131.970024,3.11870583 L133.300024,3.11870583 L134.307024,6.13020583 L135.171524,3.11870583 L136.425524,3.11870583 L134.962524,7.79270583 L133.699024,7.79270583 L132.606524,4.60070583 L131.533024,7.79270583 L130.250524,7.79270583 L128.759024,3.11870583 L130.089024,3.11870583 L130.953524,6.12070583 L131.970024,3.11870583 Z M136.815024,6.49120583 L137.898024,6.25370583 C137.926524,6.62420583 138.202024,6.96620583 138.753024,6.96620583 C139.171024,6.96620583 139.370524,6.74770583 139.370524,6.50070583 C139.370524,6.29170583 139.228024,6.12070583 138.867024,6.04470583 L138.249524,5.90220583 C137.347024,5.70270583 136.938524,5.16120583 136.938524,4.50570583 C136.938524,3.66970583 137.679524,2.97620583 138.686524,2.97620583 C140.016524,2.97620583 140.463024,3.82170583 140.520024,4.32520583 L139.465524,4.56270583 C139.427524,4.28720583 139.228024,3.93570583 138.696024,3.93570583 C138.363524,3.93570583 138.097524,4.13520583 138.097524,4.40120583 C138.097524,4.62920583 138.268524,4.77170583 138.525024,4.81920583 L139.190024,4.96170583 C140.111524,5.15170583 140.577024,5.71220583 140.577024,6.39620583 C140.577024,7.15620583 139.988024,7.93520583 138.762524,7.93520583 C137.356524,7.93520583 136.872024,7.02320583 136.815024,6.49120583 Z M146.039524,6.78570583 C146.657024,6.78570583 147.227024,6.33920583 147.227024,5.45570583 C147.227024,4.57220583 146.657024,4.12570583 146.039524,4.12570583 C145.422024,4.12570583 144.852024,4.57220583 144.852024,5.45570583 C144.852024,6.32970583 145.422024,6.78570583 146.039524,6.78570583 Z M146.039524,2.97620583 C147.436024,2.97620583 148.490524,4.01170583 148.490524,5.45570583 C148.490524,6.89020583 147.436024,7.93520583 146.039524,7.93520583 C144.643024,7.93520583 143.588524,6.89020583 143.588524,5.45570583 C143.588524,4.01170583 144.643024,2.97620583 146.039524,2.97620583 Z M150.751524,5.10420583 L150.751524,7.79270583 L149.488024,7.79270583 L149.488024,3.11870583 L150.713524,3.11870583 L150.713524,3.69820583 C150.998524,3.21370583 151.559024,2.99520583 152.062524,2.99520583 C153.221524,2.99520583 153.753524,3.82170583 153.753524,4.84770583 L153.753524,7.79270583 L152.490024,7.79270583 L152.490024,5.06620583 C152.490024,4.54370583 152.233524,4.13520583 151.625524,4.13520583 C151.074524,4.13520583 150.751524,4.56270583 150.751524,5.10420583 Z"/>
  </g>
</svg>
