<?xml version="1.0" encoding="UTF-8"?>
<svg width="30px" height="37px" viewBox="0 0 30 37" version="1.1" xmlns="http://www.w3.org/2000/svg" xmlns:xlink="http://www.w3.org/1999/xlink">
    <!-- Generator: Sketch 52.3 (67297) - http://www.bohemiancoding.com/sketch -->
    <title>oven_icon_hover</title>
    <desc>Created with Sketch.</desc>
    <g id="CP-&amp;-Funnel" stroke="none" stroke-width="1" fill="none" fill-rule="evenodd">
        <g id="oven_icon_hover" fill="#0060C4">
            <path d="M25.8116239,1.52816867 L26.5379642,1.52816867 C28.1751367,1.52816867 29.4990985,2.86390688 29.4990985,4.50750602 L29.4990985,33.7447349 C29.4990985,35.3886626 28.1752298,36.724494 26.5379642,36.724494 L3.39951642,36.724494 C1.76225077,36.724494 0.43838209,35.3886626 0.43838209,33.7447349 L0.43838209,4.50750602 C0.43838209,2.86390688 1.76234389,1.52816867 3.39951642,1.52816867 L4.12577313,1.52816867 L4.12577313,1.50079518 C4.12577313,0.866385565 4.63889555,0.348626506 5.27568358,0.348626506 L10.5221313,0.348626506 C11.1589194,0.348626506 11.6720418,0.866385565 11.6720418,1.50079518 L11.6720418,1.52816867 L18.2653552,1.52816867 L18.2653552,1.50079518 C18.2653552,0.866385565 18.7784776,0.348626506 19.4152657,0.348626506 L24.6617134,0.348626506 C25.2985015,0.348626506 25.8116239,0.866385565 25.8116239,1.50079518 L25.8116239,1.52816867 Z M2.23838209,8.23176506 L27.6990985,8.23176506 L27.6990985,4.50750602 C27.6990985,3.85446874 27.1774385,3.32816867 26.5379642,3.32816867 L3.39951642,3.32816867 C2.76004208,3.32816867 2.23838209,3.85446874 2.23838209,4.50750602 L2.23838209,8.23176506 Z M27.6990985,10.0317651 L2.23838209,10.0317651 L2.23838209,33.7447349 C2.23838209,34.3981566 2.76000595,34.924494 3.39951642,34.924494 L26.5379642,34.924494 C27.1774746,34.924494 27.6990985,34.3981566 27.6990985,33.7447349 L27.6990985,10.0317651 Z M4.16220299,5.75295783 C4.16220299,5.03735542 4.73682985,4.45753614 5.44602388,4.45753614 C6.15521791,4.45753614 6.73026269,5.03735542 6.73026269,5.75295783 C6.73026269,6.46813855 6.15521791,7.04837952 5.44602388,7.04837952 C4.73682985,7.04837952 4.16220299,6.46813855 4.16220299,5.75295783 Z M10.8671582,4.8366747 C11.3686507,4.3306506 12.1819045,4.3306506 12.6829791,4.8366747 C13.1844716,5.3426988 13.1844716,6.1633012 12.6829791,6.66890361 C12.1819045,7.17492771 11.3686507,7.17492771 10.8671582,6.66890361 C10.3660836,6.1633012 10.3660836,5.3426988 10.8671582,4.8366747 Z M23.1493791,5.75295783 C23.1493791,5.03735542 23.724006,4.45753614 24.4332,4.45753614 C25.142394,4.45753614 25.7174388,5.03735542 25.7174388,5.75295783 C25.7174388,6.46813855 25.142394,7.04837952 24.4332,7.04837952 C23.724006,7.04837952 23.1493791,6.46813855 23.1493791,5.75295783 Z M17.196203,6.66877711 C16.6951284,6.1631747 16.6951284,5.34257229 17.196203,4.83654819 C17.6976955,4.3305241 18.5109493,4.3305241 19.0120239,4.83654819 C19.5135164,5.34257229 19.5135164,6.1631747 19.0120239,6.66877711 C18.5109493,7.1748012 17.6976955,7.1748012 17.196203,6.66877711 Z M24.0325493,31.7255783 C24.1881194,31.7255783 24.3181612,31.5943615 24.3181612,31.429253 L24.3181612,14.6861807 C24.3181612,14.5210723 24.1881194,14.3898554 24.0325493,14.3898554 L5.81875821,14.3898554 C5.66296397,14.3898554 5.53314627,14.5208781 5.53314627,14.6861807 L5.53314627,31.429253 C5.53314627,31.5945557 5.66296397,31.7255783 5.81875821,31.7255783 L24.0325493,31.7255783 Z M24.0325493,33.5255783 L5.81875821,33.5255783 C4.66510971,33.5255783 3.73314627,32.5849645 3.73314627,31.429253 L3.73314627,14.6861807 C3.73314627,13.5304692 4.66510971,12.5898554 5.81875821,12.5898554 L24.0325493,12.5898554 C25.1858746,12.5898554 26.1181612,13.5305663 26.1181612,14.6861807 L26.1181612,31.429253 C26.1181612,32.5848674 25.1858746,33.5255783 24.0325493,33.5255783 Z M20.2758269,15.7874508 C20.7728831,15.7874508 21.1758269,16.1903945 21.1758269,16.6874508 C21.1758269,17.184507 20.7728831,17.5874508 20.2758269,17.5874508 L9.57564776,17.5874508 C9.07859149,17.5874508 8.67564776,17.184507 8.67564776,16.6874508 C8.67564776,16.1903945 9.07859149,15.7874508 9.57564776,15.7874508 L20.2758269,15.7874508 Z M20.2758269,28.5543806 C20.7728831,28.5543806 21.1758269,28.9573243 21.1758269,29.4543806 C21.1758269,29.9514368 20.7728831,30.3543806 20.2758269,30.3543806 L9.57564776,30.3543806 C9.07859149,30.3543806 8.67564776,29.9514368 8.67564776,29.4543806 C8.67564776,28.9573243 9.07859149,28.5543806 9.57564776,28.5543806 L20.2758269,28.5543806 Z" id="Combined-Shape"></path>
        </g>
    </g>
</svg>