<?xml version="1.0" encoding="UTF-8"?>
<svg width="28px" height="43px" viewBox="0 0 28 43" version="1.1" xmlns="http://www.w3.org/2000/svg" xmlns:xlink="http://www.w3.org/1999/xlink">
    <!-- Generator: Sketch 52.3 (67297) - http://www.bohemiancoding.com/sketch -->
    <title>refrigerator_icon_hover</title>
    <desc>Created with Sketch.</desc>
    <g id="CP-&amp;-Funnel" stroke="none" stroke-width="1" fill="none" fill-rule="evenodd">
        <g id="refrigerator_icon_hover" fill="#0060C4" fill-rule="nonzero">
            <path d="M26.0234258,18.642051 L2.01339355,18.642051 L2.01339355,39.8516854 C2.01339355,40.5251009 2.54307288,41.0644667 3.18836129,41.0644667 L24.8488774,41.0644667 C25.4937826,41.0644667 26.0234258,40.5250624 26.0234258,39.8516854 L26.0234258,18.642051 Z M26.0234258,16.842051 L26.0234258,3.43300833 C26.0234258,2.75963131 25.4937826,2.22022708 24.8488774,2.22022708 L3.18836129,2.22022708 C2.54307288,2.22022708 2.01339355,2.75959283 2.01339355,3.43300833 L2.01339355,16.842051 L26.0234258,16.842051 Z M24.8488774,42.8644667 L3.18836129,42.8644667 C1.54158584,42.8644667 0.213393548,41.5119853 0.213393548,39.8516854 L0.213393548,3.43300833 C0.213393548,1.77270844 1.54158584,0.420227083 3.18836129,0.420227083 L24.8488774,0.420227083 C26.495327,0.420227083 27.8234258,1.77280202 27.8234258,3.43300833 L27.8234258,39.8516854 C27.8234258,41.5118917 26.495327,42.8644667 24.8488774,42.8644667 Z M3.8717956,8.12058958 C3.8717956,7.62353331 4.27473933,7.22058958 4.7717956,7.22058958 C5.26885188,7.22058958 5.6717956,7.62353331 5.6717956,8.12058958 L5.6717956,15.3101104 C5.6717956,15.8071667 5.26885188,16.2101104 4.7717956,16.2101104 C4.27473933,16.2101104 3.8717956,15.8071667 3.8717956,15.3101104 L3.8717956,8.12058958 Z M3.8717956,20.5060062 C3.8717956,20.00895 4.27473933,19.6060062 4.7717956,19.6060062 C5.26885188,19.6060062 5.6717956,20.00895 5.6717956,20.5060062 L5.6717956,30.4766937 C5.6717956,30.97375 5.26885188,31.3766937 4.7717956,31.3766937 C4.27473933,31.3766937 3.8717956,30.97375 3.8717956,30.4766937 L3.8717956,20.5060062 Z" id="Combined-Shape"></path>
        </g>
    </g>
</svg>