<?xml version="1.0" encoding="UTF-8"?>
<svg width="66px" height="49px" viewBox="0 0 66 49" version="1.1" xmlns="http://www.w3.org/2000/svg" xmlns:xlink="http://www.w3.org/1999/xlink">
    <!-- Generator: sketchtool 51.2 (57519) - http://www.bohemiancoding.com/sketch -->
    <title>5F5BE7B7-65B4-4CCE-96D2-C59A4099D642</title>
    <desc>Created with sketchtool.</desc>
    <defs></defs>
    <g id="Mobile" stroke="none" stroke-width="1" fill="none" fill-rule="evenodd">
        <g id="Mobile-Assets" transform="translate(-56.000000, -362.000000)">
            <g id="Icon-4" transform="translate(50.000000, 351.000000)">
                <rect id="Rectangle-5" x="0" y="7" width="78" height="55"></rect>
                <g id="Risk-free-icons" transform="translate(1.000000, 0.000000)">
                    <path d="M40.559081,50.7379012 C23.4678341,54.0870157 14.045851,70.5007904 7.02360787,44.3394056 C3.09904914,29.718452 16.9962026,17.1537635 32.8900389,12.6148509 C70.8870532,1.76378132 74.0600517,34.1735627 70.0098816,45.6270976 C65.9597116,57.0806324 57.6503278,47.3887867 40.559081,50.7379012 Z" id="Bacground-Copy" fill="#F2FBFF" fill-rule="nonzero" transform="translate(38.852587, 34.660465) rotate(20.000000) translate(-38.852587, -34.660465) "></path>
                    <g id="security" transform="translate(22.043478, 18.838074)">
                        <path d="M31.7471868,8.28812913 C26.1709913,7.19545668 20.5395999,3.56042066 17.134441,0.522275254 C16.7091499,0.142942892 16.0644908,0.142942892 15.6476914,0.522275254 C12.1321407,3.64549152 6.2573216,7.2651869 1.0271616,8.28812913 C0.507754557,8.38923794 0.12987532,8.83830051 0.12987532,9.3577906 L0.12987532,24.757011 C0.12987532,30.5850622 14.2317057,38.5670797 15.8437074,39.4582319 C16.1826665,39.6444115 16.5520541,39.6444115 16.9299333,39.4582319 C18.534151,38.5670797 32.6359814,30.5850622 32.6359814,24.757011 L32.6359814,9.3577906 C32.6437654,8.83830051 32.2658862,8.38923794 31.7471868,8.28812913 Z" id="Stroke-3" stroke="#153454" stroke-width="1.0206" fill="#71B6FF" stroke-linecap="round" stroke-linejoin="round"></path>
                        <path d="M29.7327405,9.81293293 C24.8876567,8.86352405 19.994614,5.70508849 17.0359156,3.06528344 C16.6663858,2.73568648 16.1062498,2.73568648 15.7440983,3.06528344 C12.689482,5.77900545 7.58492799,8.92411172 3.04050995,9.81293293 C2.58920392,9.90078506 2.26086957,10.2909697 2.26086957,10.7423479 L2.26086957,24.1225303 C2.26086957,29.1864483 14.5137667,36.1219196 15.914414,36.8962301 C16.2089312,37.0579991 16.5298872,37.0579991 16.8582216,36.8962301 C18.2521055,36.1219196 30.5050026,29.1864483 30.5050026,24.1225303 L30.5050026,10.7423479 C30.511766,10.2909697 30.1834317,9.90078506 29.7327405,9.81293293 Z" id="Stroke-3" stroke="#153454" stroke-width="1.0206" fill="#FFFFFF" stroke-linecap="round" stroke-linejoin="round"></path>
                        <path d="M29.6761899,10.2569101 C24.8311061,9.3075012 19.958046,6.27173287 16.9993476,3.63192782 C16.6298178,3.30233086 16.2176999,3.23779959 15.8555484,3.56739655 C12.8009321,6.28111856 7.54835997,9.49075611 3.00394193,10.3795773 C2.5526359,10.4674294 2.76302437,11.0123001 2.76302437,11.4636782 L2.80552607,14.1761545 C3.99354973,13.5478645 6.03482719,12.6183182 8.92935844,11.3875156 C13.2711553,9.54131171 15.0655436,7.37085753 16.2277832,7.41522565 C17.1793797,7.45155254 19.8115871,9.52342347 22.8340374,10.9950752 C23.952511,11.5396676 26.3562488,12.6185577 30.0452509,14.2317457 L29.9730808,11.5465145 C29.9798443,11.0951364 30.1268811,10.3447622 29.6761899,10.2569101 Z" id="Stroke-3" fill="#E7F1F7"></path>
                    </g>
                    <g id="Group-15" transform="translate(32.217391, 32.928503)" stroke="#153454" stroke-linecap="round" stroke-linejoin="round" stroke-width="1.0206">
                        <rect id="Rectangle-10" x="3.39130435" y="0" width="5.65217391" height="6.76340573" rx="1.701"></rect>
                        <rect id="Rectangle-6" fill="#12FFCD" x="0" y="3.94532001" width="12.4347826" height="9.0178743" rx="2.268"></rect>
                        <path d="M6.2173913,9.29968288 L6.2173913,7.32702287" id="Line-3" fill="#12FFCD"></path>
                    </g>
                </g>
            </g>
        </g>
    </g>
</svg>
