<?xml version="1.0" encoding="UTF-8"?>
<svg width="30px" height="37px" viewBox="0 0 30 37" version="1.1" xmlns="http://www.w3.org/2000/svg" xmlns:xlink="http://www.w3.org/1999/xlink">
    <!-- Generator: Sketch 52.3 (67297) - http://www.bohemiancoding.com/sketch -->
    <title>washer_icon_hover</title>
    <desc>Created with Sketch.</desc>
    <g id="CP-&amp;-Funnel" stroke="none" stroke-width="1" fill="none" fill-rule="evenodd">
        <g id="washer_icon_hover" fill="#0060C4" fill-rule="nonzero">
            <path d="M7.99207295,20.3267547 C10.0130006,19.7706763 12.2040467,20.0330659 14.2497493,21.6293064 C14.5698877,21.8791071 14.8813614,22.159465 15.1836013,22.4711125 C17.1642788,24.5136862 21.0938715,23.8873631 21.9341041,22.4377318 C21.9894282,22.0694152 22.0181455,21.691904 22.0181455,21.30735 C22.0181455,17.2733122 18.8579956,14.0142875 14.9737818,14.0142875 C11.4094725,14.0142875 8.45501516,16.7580228 7.99207295,20.3267547 Z M20.9293586,25.204364 C18.7212658,25.9384501 15.7605193,25.6517244 13.8914181,23.7242137 C13.6464348,23.471605 13.3966334,23.2467584 13.1424366,23.0484112 C11.4982784,21.7654917 9.77733428,21.6252379 8.17788371,22.1502834 C8.10804435,22.1732093 8.04309756,22.19591 7.9833226,22.2179241 C8.41645336,25.8207246 11.386196,28.6004125 14.9737818,28.6004125 C17.4770948,28.6004125 19.6796609,27.246746 20.9293586,25.204364 Z M3.48550909,9.02420625 C2.98845282,9.02420625 2.58550909,8.62126252 2.58550909,8.12420625 C2.58550909,7.62714998 2.98845282,7.22420625 3.48550909,7.22420625 L26.4616303,7.22420625 C26.9586866,7.22420625 27.3616303,7.62714998 27.3616303,8.12420625 C27.3616303,8.62126252 26.9586866,9.02420625 26.4616303,9.02420625 L3.48550909,9.02420625 Z M26.7181697,34.9179125 C27.3704468,34.9179125 27.9105333,34.3609483 27.9105333,33.6601625 L27.9105333,3.3265375 C27.9105333,2.62614883 27.3704103,2.069225 26.7181697,2.069225 L3.22913939,2.069225 C2.57689875,2.069225 2.03677576,2.62614883 2.03677576,3.3265375 L2.03677576,33.6601625 C2.03677576,34.3609483 2.57686229,34.9179125 3.22913939,34.9179125 L26.7181697,34.9179125 Z M26.7181697,36.7179125 L3.22913939,36.7179125 C1.57014377,36.7179125 0.236775758,35.3428767 0.236775758,33.6601625 L0.236775758,3.3265375 C0.236775758,1.64416588 1.57023852,0.269225 3.22913939,0.269225 L26.7181697,0.269225 C28.3770706,0.269225 29.7105333,1.64416588 29.7105333,3.3265375 L29.7105333,33.6601625 C29.7105333,35.3428767 28.3771653,36.7179125 26.7181697,36.7179125 Z M6.12899394,21.30735 C6.12899394,16.2913233 10.0824832,12.2142875 14.9737818,12.2142875 C19.8647295,12.2142875 23.8181455,16.2913981 23.8181455,21.30735 C23.8181455,26.3233019 19.8647295,30.4004125 14.9737818,30.4004125 C10.0824832,30.4004125 6.12899394,26.3233767 6.12899394,21.30735 Z M26.0039152,5.74875625 L21.4751273,5.74875625 C21.2222788,5.74875625 21.0173697,5.53744375 21.0173697,5.27669375 L21.0173697,3.96069375 C21.0173697,3.69950625 21.2222788,3.48819375 21.4751273,3.48819375 L26.0039152,3.48819375 C26.2567636,3.48819375 26.4616727,3.69950625 26.4616727,3.96069375 L26.4616727,5.27669375 C26.4616727,5.53744375 26.2567636,5.74875625 26.0039152,5.74875625 Z" id="Combined-Shape"></path>
        </g>
    </g>
</svg>